<?xml version="1.0" encoding="UTF-8" standalone="no"?>
<!-- Generator: Adobe Illustrator 21.0.0, SVG Export Plug-In . SVG Version: 6.00 Build 0)  -->

<svg
   xmlns:dc="http://purl.org/dc/elements/1.1/"
   xmlns:cc="http://creativecommons.org/ns#"
   xmlns:rdf="http://www.w3.org/1999/02/22-rdf-syntax-ns#"
   xmlns:svg="http://www.w3.org/2000/svg"
   xmlns="http://www.w3.org/2000/svg"
   xmlns:sodipodi="http://sodipodi.sourceforge.net/DTD/sodipodi-0.dtd"
   xmlns:inkscape="http://www.inkscape.org/namespaces/inkscape"
   version="1.1"
   id="Layer_1"
   x="0px"
   y="0px"
   viewBox="0 0 100.353 100.353"
   style="enable-background:new 0 0 100.353 100.353;"
   xml:space="preserve"
   sodipodi:docname="map.svg"
   inkscape:version="0.92.3 (2405546, 2018-03-11)"><metadata
   id="metadata13"><rdf:RDF><cc:Work
       rdf:about=""><dc:format>image/svg+xml</dc:format><dc:type
         rdf:resource="http://purl.org/dc/dcmitype/StillImage" /></cc:Work></rdf:RDF></metadata><defs
   id="defs11">
	
	
</defs><sodipodi:namedview
   pagecolor="#ffffff"
   bordercolor="#666666"
   borderopacity="1"
   objecttolerance="10"
   gridtolerance="10"
   guidetolerance="10"
   inkscape:pageopacity="0"
   inkscape:pageshadow="2"
   inkscape:window-width="1309"
   inkscape:window-height="713"
   id="namedview9"
   showgrid="false"
   inkscape:zoom="2.3516986"
   inkscape:cx="50.176498"
   inkscape:cy="50.176498"
   inkscape:window-x="51"
   inkscape:window-y="27"
   inkscape:window-maximized="1"
   inkscape:current-layer="Layer_1" />
<path
   inkscape:connector-curvature="0"
   id="path2"
   d="m 70.571,38.35 c 0.005,0 0.01,0 0.016,0 2.12,0 4.115,-0.825 5.618,-2.323 1.507,-1.502 2.338,-3.501 2.34,-5.629 v 0 c 0.004,-4.394 -3.565,-7.973 -7.957,-7.979 -0.002,0 -0.005,0 -0.007,0 -2.125,0 -4.124,0.826 -5.628,2.326 -1.507,1.502 -2.338,3.501 -2.34,5.625 -0.004,2.13 0.823,4.134 2.328,5.643 1.505,1.507 3.505,2.337 5.63,2.337 z m -3.5,-11.481 c 0.938,-0.935 2.185,-1.45 3.509,-1.45 0.002,0 0.003,0 0.005,0 2.737,0.003 4.962,2.235 4.96,4.976 -0.001,1.326 -0.52,2.572 -1.458,3.508 -0.937,0.934 -2.18,1.448 -3.503,1.448 -0.003,0 -0.007,0 -0.01,0 -1.325,0 -2.571,-0.517 -3.509,-1.457 -0.939,-0.94 -1.455,-2.19 -1.452,-3.52 0.001,-1.324 0.518,-2.569 1.458,-3.505 z"
   style="fill:#000000;fill-opacity:1" /><path
   inkscape:connector-curvature="0"
   id="path4"
   d="m 96.632,85.441 -15.297,-35.785 5.214,-8.34 c 0.056,-0.088 0.101,-0.181 0.135,-0.277 1.782,-2.956 2.724,-6.305 2.724,-9.705 0.008,-5.034 -1.941,-9.767 -5.489,-13.329 -3.549,-3.563 -8.276,-5.53 -13.312,-5.538 -0.009,0 -0.016,0 -0.023,0 -10.375,0 -18.827,8.434 -18.845,18.813 0,3.453 0.945,6.822 2.736,9.762 0.028,0.07 0.062,0.139 0.102,0.205 l 2.837,4.765 H 21.212 c -0.601,0 -1.144,0.358 -1.379,0.911 L 3.37,85.44 c -0.198,0.463 -0.15,0.995 0.127,1.416 0.278,0.42 0.748,0.673 1.252,0.673 h 90.506 c 0.504,0 0.975,-0.253 1.252,-0.674 0.276,-0.419 0.324,-0.95 0.125,-1.414 z M 57.159,39.681 c -1.585,-2.516 -2.422,-5.42 -2.422,-8.397 0.015,-8.725 7.121,-15.816 15.845,-15.816 0.006,0 0.013,0 0.02,0 4.233,0.006 8.208,1.66 11.191,4.655 2.982,2.994 4.621,6.974 4.614,11.207 0,0.001 0,0.001 0,0.002 0,2.944 -0.843,5.847 -2.438,8.393 -0.053,0.085 -0.097,0.175 -0.131,0.267 L 70.256,61.719 61.323,46.717 C 61.312,46.7 61.303,46.681 61.292,46.664 L 57.29,39.943 c -0.035,-0.09 -0.079,-0.178 -0.131,-0.262 z m -34.958,9.332 h 3.46 c 0.21,4.312 3.906,5.935 6.631,7.123 1.432,0.625 2.912,1.27 3.378,2.064 0.736,1.255 0.262,2.128 -1.177,4.124 -1.311,1.818 -2.941,4.081 -1.826,7.046 1.73,4.602 10.712,5.837 20.559,6.79 1.788,0.173 3.332,0.322 4.3,0.486 7.629,1.295 10.181,5.626 11.008,7.884 H 7.021 Z M 71.681,84.53 C 70.998,81.941 68.278,75.428 58.027,73.689 56.953,73.507 55.359,73.353 53.514,73.174 48.053,72.646 36.69,71.547 35.475,68.314 c -0.523,-1.39 0.211,-2.515 1.451,-4.236 1.319,-1.83 3.125,-4.335 1.331,-7.396 -0.96,-1.637 -2.896,-2.481 -4.768,-3.297 -2.852,-1.243 -4.623,-2.198 -4.812,-4.373 h 30.521 l 9.737,16.353 c 0.268,0.449 0.75,0.727 1.272,0.732 0.006,0 0.011,0 0.017,0 0.517,0 0.998,-0.266 1.271,-0.705 L 79.396,52.753 92.979,84.528 H 71.681 Z"
   style="fill:#000000;fill-opacity:1" />
</svg>