<?xml version="1.0" encoding="UTF-8" standalone="no"?>
<svg
   xmlns:dc="http://purl.org/dc/elements/1.1/"
   xmlns:cc="http://creativecommons.org/ns#"
   xmlns:rdf="http://www.w3.org/1999/02/22-rdf-syntax-ns#"
   xmlns:svg="http://www.w3.org/2000/svg"
   xmlns="http://www.w3.org/2000/svg"
   xmlns:sodipodi="http://sodipodi.sourceforge.net/DTD/sodipodi-0.dtd"
   xmlns:inkscape="http://www.inkscape.org/namespaces/inkscape"
   enable-background="new 0 0 128 128"
   id="Слой_1"
   version="1.1"
   viewBox="0 0 128 128"
   xml:space="preserve"
   sodipodi:docname="construction_project_plan_building_architect_design_develop-80_icon-icons.com_60245.svg"
   inkscape:version="0.92.3 (2405546, 2018-03-11)"><metadata
     id="metadata29"><rdf:RDF><cc:Work
         rdf:about=""><dc:format>image/svg+xml</dc:format><dc:type
           rdf:resource="http://purl.org/dc/dcmitype/StillImage" /></cc:Work></rdf:RDF></metadata><defs
     id="defs27" /><sodipodi:namedview
     pagecolor="#ffffff"
     bordercolor="#666666"
     borderopacity="1"
     objecttolerance="10"
     gridtolerance="10"
     guidetolerance="10"
     inkscape:pageopacity="0"
     inkscape:pageshadow="2"
     inkscape:window-width="1309"
     inkscape:window-height="713"
     id="namedview25"
     showgrid="false"
     inkscape:zoom="1.84375"
     inkscape:cx="64"
     inkscape:cy="64"
     inkscape:window-x="51"
     inkscape:window-y="27"
     inkscape:window-maximized="1"
     inkscape:current-layer="Слой_1" /><rect
     style="fill:#24bc24;fill-opacity:1"
     id="rect2"
     y="100"
     x="57"
     width="37"
     height="4" /><rect
     style="fill:#24bc24;fill-opacity:1"
     id="rect4"
     y="109"
     x="57"
     width="13"
     height="4" /><rect
     style="fill:#24bc24;fill-opacity:1"
     id="rect6"
     y="70"
     x="57"
     width="37"
     height="4" /><rect
     style="fill:#24bc24;fill-opacity:1"
     id="rect8"
     y="79"
     x="57"
     width="13"
     height="4" /><rect
     style="fill:#24bc24;fill-opacity:1"
     id="rect10"
     y="40"
     x="57"
     width="37"
     height="4" /><rect
     style="fill:#24bc24;fill-opacity:1"
     id="rect12"
     y="49"
     x="57"
     width="13"
     height="4" /><path
     style="fill:#24bc24;fill-opacity:1"
     inkscape:connector-curvature="0"
     id="path14"
     d="m 69.8,9 c 0,-3.9 -3.1,-7 -7,-7 -3.9,0 -7,3.1 -7,7 H 46 v 5 H 21 v 112 h 84 V 14 H 80 V 9 Z m -7,-3 c 1.7,0 3,1.3 3,3 h -6 c 0,-1.7 1.4,-3 3,-3 z M 50,13 h 26 v 6 H 50 Z m 51,5 V 122 H 25 V 18 h 21 v 5 h 34 v -5 z" /><path
     style="fill:#24bc24;fill-opacity:1"
     inkscape:connector-curvature="0"
     id="path16"
     d="M 31,116 H 50 V 97 H 31 Z m 4,-15 h 11 v 11 H 35 Z" /><path
     style="fill:#24bc24;fill-opacity:1"
     inkscape:connector-curvature="0"
     id="path18"
     d="M 31,86 H 50 V 67 H 31 Z M 35,71 H 46 V 82 H 35 Z" /><path
     style="fill:#24bc24;fill-opacity:1"
     inkscape:connector-curvature="0"
     id="path20"
     d="M 31,56 H 50 V 37 H 31 Z M 35,41 H 46 V 52 H 35 Z" /></svg>