<?xml version="1.0" encoding="UTF-8" standalone="no"?>
<svg
   xmlns:dc="http://purl.org/dc/elements/1.1/"
   xmlns:cc="http://creativecommons.org/ns#"
   xmlns:rdf="http://www.w3.org/1999/02/22-rdf-syntax-ns#"
   xmlns:svg="http://www.w3.org/2000/svg"
   xmlns="http://www.w3.org/2000/svg"
   xmlns:sodipodi="http://sodipodi.sourceforge.net/DTD/sodipodi-0.dtd"
   xmlns:inkscape="http://www.inkscape.org/namespaces/inkscape"
   enable-background="new 0 0 128 128"
   id="Слой_1"
   version="1.1"
   viewBox="0 0 128 128"
   xml:space="preserve"
   sodipodi:docname="construction_project_plan_building_architect_design_develop-59_icon-icons.com_60236.svg"
   inkscape:version="0.92.3 (2405546, 2018-03-11)"><metadata
     id="metadata15"><rdf:RDF><cc:Work
         rdf:about=""><dc:format>image/svg+xml</dc:format><dc:type
           rdf:resource="http://purl.org/dc/dcmitype/StillImage" /></cc:Work></rdf:RDF></metadata><defs
     id="defs13" /><sodipodi:namedview
     pagecolor="#ffffff"
     bordercolor="#666666"
     borderopacity="1"
     objecttolerance="10"
     gridtolerance="10"
     guidetolerance="10"
     inkscape:pageopacity="0"
     inkscape:pageshadow="2"
     inkscape:window-width="1309"
     inkscape:window-height="713"
     id="namedview11"
     showgrid="false"
     inkscape:zoom="1.84375"
     inkscape:cx="64"
     inkscape:cy="64"
     inkscape:window-x="51"
     inkscape:window-y="27"
     inkscape:window-maximized="1"
     inkscape:current-layer="Слой_1" /><path
     style="fill:#24bc24;fill-opacity:1"
     inkscape:connector-curvature="0"
     id="path2"
     d="m 100.6,50.9 h -4 C 96.6,68.8 82,83.4 64.1,83.4 46.2,83.4 31.7,68.8 31.7,50.9 h -4 c 0,20.1 16.3,36.4 36.4,36.4 20.1,0 36.5,-16.3 36.5,-36.4 z" /><path
     style="fill:#24bc24;fill-opacity:1"
     inkscape:connector-curvature="0"
     id="path4"
     d="m 61.7,123.6 c 0.8,0.6 1.6,1 2.5,1 0,0 0.1,0 0.1,0 0.2,0 0.4,0 0.6,-0.1 0.4,-0.1 0.7,-0.2 0.9,-0.4 0,0 0,0 0.1,0 5.2,-3.2 44.5,-45.1 45.8,-70.8 V 50.9 C 111.7,24.7 90.4,3.4 64.2,3.4 38,3.4 16.6,24.7 16.6,50.9 c 0,0.8 0,1.7 0.1,2.6 0.7,13.2 11.2,30.1 19.9,42 9.4,12.8 20.5,24.8 25.1,28.1 z m -41,-70.7 c -0.1,-0.5 -0.1,-1.3 -0.1,-2 0,-24 19.5,-43.5 43.5,-43.5 24,0 43.5,19.5 43.5,43.5 v 2.3 c -1.2,22.8 -37.2,62.7 -43.4,67.2 0,0 -0.1,0 -0.1,0 C 57.8,116.3 22,76.4 20.8,53.1 Z" /><path
     style="fill:#24bc24;fill-opacity:1"
     inkscape:connector-curvature="0"
     id="path6"
     d="M 45.1,47.2 V 72.5 H 82.9 V 47.2 l 2.2,2.2 2.8,-2.8 -5,-5 V 27.3 H 73.3 V 32 L 64,22.7 40.1,46.6 42.9,49.4 Z M 77.2,41.6 V 31.3 h 1.6 v 11.6 0.3 25.3 H 49.1 V 43.2 L 64,28.3 Z" /></svg>