<?xml version="1.0" encoding="UTF-8" standalone="no"?>
<!-- Generator: Adobe Illustrator 17.0.0, SVG Export Plug-In . SVG Version: 6.00 Build 0)  -->

<svg
   xmlns:sketch="http://www.bohemiancoding.com/sketch/ns"
   xmlns:dc="http://purl.org/dc/elements/1.1/"
   xmlns:cc="http://creativecommons.org/ns#"
   xmlns:rdf="http://www.w3.org/1999/02/22-rdf-syntax-ns#"
   xmlns:svg="http://www.w3.org/2000/svg"
   xmlns="http://www.w3.org/2000/svg"
   xmlns:sodipodi="http://sodipodi.sourceforge.net/DTD/sodipodi-0.dtd"
   xmlns:inkscape="http://www.inkscape.org/namespaces/inkscape"
   version="1.1"
   id="Layer_1"
   x="0px"
   y="0px"
   width="64px"
   height="60px"
   viewBox="0 0 64 60"
   enable-background="new 0 0 64 60"
   xml:space="preserve"
   sodipodi:docname="Law_icon-icons.com_52041.svg"
   inkscape:version="0.92.3 (2405546, 2018-03-11)"><metadata
   id="metadata18"><rdf:RDF><cc:Work
       rdf:about=""><dc:format>image/svg+xml</dc:format><dc:type
         rdf:resource="http://purl.org/dc/dcmitype/StillImage" /></cc:Work></rdf:RDF></metadata><defs
   id="defs16" /><sodipodi:namedview
   pagecolor="#ffffff"
   bordercolor="#666666"
   borderopacity="1"
   objecttolerance="10"
   gridtolerance="10"
   guidetolerance="10"
   inkscape:pageopacity="0"
   inkscape:pageshadow="2"
   inkscape:window-width="1309"
   inkscape:window-height="713"
   id="namedview14"
   showgrid="false"
   inkscape:zoom="5.5625733"
   inkscape:cx="30.595079"
   inkscape:cy="32.12335"
   inkscape:window-x="51"
   inkscape:window-y="27"
   inkscape:window-maximized="1"
   inkscape:current-layer="Page-1" />
<title
   id="title2">Law</title>
<desc
   id="desc4">Created with Sketch.</desc>
<g
   id="Page-1"
   sketch:type="MSPage">
	<g
   id="g4770"><g
     sketch:type="MSLayerGroup"
     transform="translate(1.000000, 1.000000)"
     id="Law">
		<path
   style="stroke:#24bc24;stroke-opacity:1"
   fill="none"
   stroke="#6B6C6E"
   stroke-width="2"
   stroke-linejoin="round"
   d="    M52.9,9h-20V5.9c0-1.1-0.9-5.9-2-5.9s-2,4.8-2,5.9V9h-20c-1.7,0-3,1.3-3,2.9s1.3,2.9,3,2.9s3-1.3,3-2.9c0-0.2,8.5,3.8,16.9,4v32.4    c-4.7,0.2-8.3,1.9-8.3,3.2c0,0.2,0.1,0.5,0.3,0.7H17c-0.8,0-1.4,0.6-1.4,1.3v3.2c0,0.7,0.6,1.3,1.4,1.3h4.1c0.8,0,1.4-0.6,1.4-1.3    V56h16.4v0.7c0,0.7,0.6,1.3,1.4,1.3h4.1c0.8,0,1.4-0.6,1.4-1.3v-3.2c0-0.7-0.6-1.3-1.4-1.3h-3.8c0.2-0.2,0.3-0.4,0.3-0.7    c0-1.3-3.6-3-8.3-3.2V15.9c8.5-0.1,16.9-4.1,16.9-4c0,1.6,1.3,2.9,3,2.9s3-1.3,3-2.9C55.9,10.3,54.6,9,52.9,9L52.9,9z"
   sketch:type="MSShapeGroup"
   id="Shape_2_" />
		<path
   style="stroke:#24bc24;stroke-opacity:1"
   fill="none"
   stroke="#6B6C6E"
   stroke-width="2"
   stroke-linejoin="round"
   d="    M0.1,41L9,14.9l9,27"
   sketch:type="MSShapeGroup"
   id="Shape_3_" />
		<path
   style="stroke:#24bc24;stroke-opacity:1"
   fill="none"
   stroke="#6B6C6E"
   stroke-width="2"
   stroke-linejoin="round"
   d="M44,42    l8.9-27.1l9.1,28"
   sketch:type="MSShapeGroup"
   id="Shape_4_" />
		<path
   style="stroke:#24bc24;stroke-opacity:1"
   fill="none"
   stroke="#6B6C6E"
   stroke-width="2"
   stroke-linejoin="round"
   d="M18,41.4    c0,1.9-4,3.6-9,3.6s-9-1.7-9-3.6C0,39.5,18,39.5,18,41.4L18,41.4z"
   sketch:type="MSShapeGroup"
   id="Shape" />
		<path
   style="stroke:#24bc24;stroke-opacity:1"
   fill="none"
   stroke="#6B6C6E"
   stroke-width="2"
   stroke-linejoin="round"
   d="    M61.9,42.4c0,1.9-4,3.6-9,3.6s-9-1.7-9-3.6C44,40.5,61.9,40.5,61.9,42.4L61.9,42.4z"
   sketch:type="MSShapeGroup"
   id="Shape_1_" />
	</g></g>
</g>
</svg>