<?xml version="1.0" encoding="UTF-8" standalone="no"?>
<svg
   xmlns:dc="http://purl.org/dc/elements/1.1/"
   xmlns:cc="http://creativecommons.org/ns#"
   xmlns:rdf="http://www.w3.org/1999/02/22-rdf-syntax-ns#"
   xmlns:svg="http://www.w3.org/2000/svg"
   xmlns="http://www.w3.org/2000/svg"
   xmlns:sodipodi="http://sodipodi.sourceforge.net/DTD/sodipodi-0.dtd"
   xmlns:inkscape="http://www.inkscape.org/namespaces/inkscape"
   enable-background="new 0 0 128 128"
   id="Слой_1"
   version="1.1"
   viewBox="0 0 128 128"
   xml:space="preserve"
   sodipodi:docname="construction_project_plan_building_architect_design_develop-62_icon-icons.com_60212.svg"
   inkscape:version="0.92.3 (2405546, 2018-03-11)"><metadata
     id="metadata15"><rdf:RDF><cc:Work
         rdf:about=""><dc:format>image/svg+xml</dc:format><dc:type
           rdf:resource="http://purl.org/dc/dcmitype/StillImage" /></cc:Work></rdf:RDF></metadata><defs
     id="defs13" /><sodipodi:namedview
     pagecolor="#ffffff"
     bordercolor="#666666"
     borderopacity="1"
     objecttolerance="10"
     gridtolerance="10"
     guidetolerance="10"
     inkscape:pageopacity="0"
     inkscape:pageshadow="2"
     inkscape:window-width="1309"
     inkscape:window-height="713"
     id="namedview11"
     showgrid="false"
     inkscape:zoom="1.84375"
     inkscape:cx="2.3348245"
     inkscape:cy="19.318531"
     inkscape:window-x="51"
     inkscape:window-y="27"
     inkscape:window-maximized="1"
     inkscape:current-layer="Слой_1" /><path
     style="fill:#24bc24;fill-opacity:1"
     inkscape:connector-curvature="0"
     id="path2"
     d="M 6,104 H 2 c 0,9.4 7.6,17 17,17 H 126 V 17 H 21 V 2 H 19 C 9.6,2 2,9.6 2,19 v 85 H 6 C 6,96.8 11.8,91 19,91 h 2 V 21 h 101 v 96 H 19 C 11.8,117 6,111.2 6,104 Z M 17,87.1 C 12.6,87.6 8.7,89.8 6,93 V 19 C 6,12.5 10.8,7.1 17,6.2 Z" /><path
     style="fill:#24bc24;fill-opacity:1"
     inkscape:connector-curvature="0"
     id="path4"
     d="M 103,29 H 91 v 67.5 l 6,12 6,-12 z m -4,4 V 44 H 95 V 33 Z m -2,66.5 -2,-4 V 48 h 4 v 47.5 z" /><path
     style="fill:#24bc24;fill-opacity:1"
     inkscape:connector-curvature="0"
     id="path6"
     d="m 42,77 v 4 h 8 l -5,27.7 3.9,0.7 L 54,81 H 66 L 71.1,109.4 75,108.7 70,81 h 8 V 77 H 69.3 L 67,63.8 C 70.1,61.6 72,57.9 72,54 72,48.1 67.7,43.1 62,42.2 V 29 h -4 v 13.2 c -5.7,1 -10,5.9 -10,11.8 0,3.9 1.9,7.5 5,9.8 L 50.7,77 Z M 56.2,61 C 53.6,59.6 52,56.9 52,54 c 0,-4.4 3.6,-8 8,-8 4.4,0 8,3.6 8,8 0,2.9 -1.6,5.6 -4.2,7 L 62.5,61.7 65.3,77 H 54.7 l 2.7,-15.3 z" /></svg>